<svg id="svg" version="1.1" xmlns="http://www.w3.org/2000/svg" xmlns:xlink="http://www.w3.org/1999/xlink" width="40" height="40" viewBox="0, 0, 400,410.6666666666667"><g id="svgg"><path id="path0" d="M7.600 206.600 L 7.600 398.000 199.000 398.000 L 390.400 398.000 390.400 206.600 L 390.400 15.200 199.000 15.200 L 7.600 15.200 7.600 206.600 M222.098 135.900 L 222.200 186.200 269.100 186.302 L 316.000 186.403 316.000 209.600 L 316.000 232.797 269.100 232.898 L 222.200 233.000 222.098 283.300 L 221.997 333.600 196.400 333.600 L 170.803 333.600 170.702 283.300 L 170.600 233.000 123.500 232.898 L 76.400 232.797 76.400 209.600 L 76.400 186.403 123.500 186.302 L 170.600 186.200 170.702 135.900 L 170.803 85.600 196.400 85.600 L 221.997 85.600 222.098 135.900 " stroke="none" fill="#666666" fill-rule="evenodd"></path><path id="path1" d="" stroke="none" fill="#666666" fill-rule="evenodd"></path><path id="path2" d="" stroke="none" fill="#666666" fill-rule="evenodd"></path><path id="path3" d="" stroke="none" fill="#585454" fill-rule="evenodd"></path><path id="path4" d="" stroke="none" fill="#666666" fill-rule="evenodd"></path></g></svg>
